<?xml version="1.0" standalone="no"?>
<!DOCTYPE svg PUBLIC "-//W3C//DTD SVG 20010904//EN"
 "http://www.w3.org/TR/2001/REC-SVG-20010904/DTD/svg10.dtd">
<svg version="1.0" xmlns="http://www.w3.org/2000/svg"
 width="512.000000pt" height="512.000000pt" viewBox="0 0 512.000000 512.000000"
 preserveAspectRatio="xMidYMid meet">
<metadata>
Created by potrace 1.14, written by Peter Selinger 2001-2017
</metadata>
<g transform="translate(0.000000,512.000000) scale(0.100000,-0.100000)"
fill="#000000" stroke="none">
<path d="M1328 4256 c-53 -27 -60 -111 -11 -143 20 -13 54 -17 180 -18 l155
-1 44 -82 c23 -45 40 -82 36 -83 -4 -1 -101 -2 -217 -3 -201 -2 -212 -3 -258
-26 -128 -64 -182 -211 -123 -335 47 -101 126 -147 255 -151 47 -1 86 -6 86
-10 0 -5 -56 -120 -124 -255 l-124 -247 -67 -4 c-92 -5 -114 -23 -241 -192
l-105 -141 -70 -2 c-119 -5 -127 -8 -166 -66 -20 -28 -113 -173 -208 -322 -95
-148 -179 -277 -186 -286 -10 -11 -28 -15 -59 -13 -85 6 -133 -34 -121 -101
10 -50 39 -65 132 -69 44 -2 102 -7 129 -11 106 -14 303 -85 376 -136 42 -29
199 -105 264 -128 133 -46 259 -65 420 -65 229 0 402 44 600 152 282 153 398
187 645 186 116 0 98 6 330 -115 132 -70 238 -106 360 -125 19 -3 67 -16 106
-29 156 -53 264 -69 454 -68 234 1 417 52 633 177 186 108 331 153 517 161 41
2 80 4 85 5 25 2 57 39 61 72 4 28 0 42 -19 64 -24 27 -29 29 -109 29 -76 1
-109 -2 -208 -20 -116 -20 -262 -76 -387 -147 -127 -73 -142 -80 -110 -46 7 7
55 65 107 128 51 63 96 117 99 120 3 3 24 28 46 55 41 52 73 89 90 109 6 6 42
49 80 96 38 47 72 87 75 90 3 3 37 43 75 90 69 84 101 122 120 144 63 70 128
162 137 192 15 56 2 114 -34 153 -57 61 -59 61 -482 61 l-384 1 -190 137
c-104 75 -200 145 -213 155 -40 29 -453 329 -477 346 -12 9 -39 50 -60 91 -66
134 -200 245 -337 280 -37 10 -172 14 -527 15 -263 0 -479 3 -481 5 -7 11 -77
155 -77 160 0 3 101 5 225 5 123 0 238 3 254 8 32 8 61 49 61 86 0 11 -11 33
-24 48 l-24 28 -496 1 c-353 1 -502 -2 -518 -10z"/>
<path d="M41 1349 c-34 -21 -45 -48 -36 -90 10 -45 45 -62 133 -65 170 -7 311
-45 462 -127 174 -94 258 -134 328 -156 87 -27 88 -27 233 -49 87 -13 304 -7
404 12 148 28 308 91 435 171 234 147 583 191 868 109 97 -28 167 -60 292
-132 216 -124 404 -171 667 -166 239 4 419 54 624 175 180 106 337 155 521
163 103 4 134 19 143 70 15 75 -31 104 -158 100 -48 -1 -98 -5 -111 -8 -13 -3
-41 -8 -62 -11 -112 -17 -254 -72 -410 -161 -217 -123 -344 -157 -589 -157
-224 0 -349 36 -585 169 -163 91 -281 132 -455 158 -86 13 -285 14 -375 2
-138 -19 -307 -78 -435 -152 -252 -144 -376 -179 -635 -177 -207 1 -360 45
-561 160 -46 27 -109 61 -140 75 -175 82 -486 131 -558 87z"/>
</g>
</svg>
